<svg xmlns="http://www.w3.org/2000/svg" xmlns:xlink="http://www.w3.org/1999/xlink"><defs>
<clipPath id="clip0_95_18">
<rect width="30" height="32" fill="white" transform="translate(15.5 14)"/>
</clipPath>

<clipPath id="clip0_93023_523">
<rect width="128" height="24" fill="white" transform="translate(0.5)"/>
</clipPath>

<clipPath id="clip0_93023_545">
<rect width="27" height="34" fill="currentColor"/>
</clipPath>

<clipPath id="clip0_135_3354">
<rect width="101" height="18" fill="white"/>
</clipPath>

<clipPath id="clip0_93023_536">
<rect width="28" height="22" fill="currentColor" transform="translate(0.5)"/>
</clipPath>
</defs><symbol id="advanteges-change" viewBox="0 0 61 60"><g fill="none">
<rect x="0.5" width="60" height="60" fill="#68B738"/>
<path fill-rule="evenodd" clip-rule="evenodd" d="M36.6173 15.0761C36.991 14.9214 37.4211 15.0069 37.7071 15.2929C38.6156 16.2014 39.8038 18.1706 40.7659 21.2108C41.7373 24.2804 42.5 28.5081 42.5 34C42.5 34.5523 42.0523 35 41.5 35H38V44C38 44.5523 37.5523 45 37 45C36.4477 45 36 44.5523 36 44V16C36 15.5956 36.2436 15.2309 36.6173 15.0761ZM38 33H40.4912C40.4053 28.1836 39.7051 24.4875 38.8591 21.8142C38.5807 20.9346 38.2885 20.1715 38 19.519V33Z" fill="white"/>
<path fill-rule="evenodd" clip-rule="evenodd" d="M24 15C24.5523 15 25 15.4477 25 16V44C25 44.5523 24.5523 45 24 45C23.4477 45 23 44.5523 23 44V16C23 15.4477 23.4477 15 24 15Z" fill="white"/>
<path fill-rule="evenodd" clip-rule="evenodd" d="M19.5 15C20.0523 15 20.5 15.4477 20.5 16V21.5C20.5 22.0569 20.692 22.8152 21.2009 23.4166C21.68 23.9828 22.5145 24.5 23.9999 24.5C24.5522 24.5 24.9999 24.9477 24.9999 25.5C24.9999 26.0523 24.5522 26.5 23.9999 26.5C21.9855 26.5 20.57 25.7672 19.6741 24.7084C18.808 23.6848 18.5 22.4431 18.5 21.5V16C18.5 15.4477 18.9477 15 19.5 15Z" fill="white"/>
<path fill-rule="evenodd" clip-rule="evenodd" d="M28.5 15C27.9477 15 27.5 15.4477 27.5 16V21.5C27.5 22.0569 27.308 22.8152 26.7991 23.4166C26.32 23.9828 25.4854 24.5 23.9999 24.5C23.4476 24.5 23.0001 24.9477 23.0001 25.5C23.0001 26.0523 23.4476 26.5 23.9999 26.5C26.0144 26.5 27.43 25.7672 28.3259 24.7084C29.192 23.6848 29.5 22.4431 29.5 21.5V16C29.5 15.4477 29.0523 15 28.5 15Z" fill="white"/>
</g></symbol><symbol id="advanteges-flexible" viewBox="0 0 61 60"><g fill="none">
<rect x="0.5" width="60" height="60" fill="#68B738"/>
<path d="M28.875 16C27.2437 16 25.975 17.3594 25.975 19.0812C25.975 20.8031 27.2437 22.1625 28.875 22.1625C30.5063 22.1625 31.775 20.8031 31.775 19.0812C31.775 17.3594 30.5063 16 28.875 16ZM28.875 17.1781C29.8719 17.1781 30.5969 18.0209 30.5969 19.0812C30.5969 20.0781 29.8084 20.9844 28.875 20.9844C27.8781 20.9844 27.1531 20.1416 27.1531 19.0812C27.1531 18.0844 27.9325 17.1781 28.875 17.1781ZM18 40.7406C18 41.9188 18.4078 42.9156 19.3594 43.7313C20.3563 44.5831 21.5344 44.5106 21.5344 44.5106H40.5656C41.345 44.5106 42.3781 44.13 43.1937 43.0606C44.0366 42.0638 43.9822 40.7044 43.9822 40.7044V23.4856C43.9822 23.0506 43.8734 22.8875 43.2391 22.8875C42.6047 22.8875 42.5503 23.1594 42.5503 23.4766V40.6953C42.5322 40.9944 42.4778 41.7828 41.8072 42.4172C41.0731 43.0425 40.3572 42.9609 40.3572 42.9609C40.3572 42.9609 22.2322 42.9609 21.3259 42.9338C20.9816 42.8703 20.4197 42.7434 19.8759 42.0275C19.3684 41.3025 19.4681 40.3962 19.4681 40.3962V23.1775C19.4681 22.7153 19.2325 22.5431 18.7431 22.5431C18.2538 22.5431 18 22.7153 18 23.1231V40.7406ZM34.3125 24.4281C33.225 24.6637 32.1375 24.8088 30.0531 26.7844C27.9688 28.7781 26.4281 28.6875 24.8875 28.5969C23.3469 28.5063 21.7156 27.0563 21.4438 26.6938C21.1084 26.3403 20.5375 26.5759 20.3562 26.8116C20.2022 27.0472 20.2022 27.455 20.465 27.8084C21.7338 28.9866 22.9119 29.8928 25.1775 30.0741C27.4431 30.2916 29.6181 29.2675 31.0681 27.8084C32.5181 26.3584 33.2431 26.0866 34.3306 25.9053C36.9587 25.4884 38.4994 26.5216 39.4056 27.1741C40.4025 28.2616 40.6744 27.9534 40.9462 27.6453C41.49 26.9294 40.7197 26.3766 39.8588 25.7422C38.0463 24.5641 36.3244 24.1109 34.3306 24.4734L34.3125 24.4281ZM25.25 31.5875C24.0719 31.5875 23.1656 32.5844 23.1656 33.8531C23.1656 35.1219 24.0719 36.1188 25.25 36.1188C26.4281 36.1188 27.3344 35.1219 27.3344 33.8531C27.3344 32.5844 26.4281 31.5875 25.25 31.5875ZM37.0312 32.3669C35.4906 32.3669 34.2219 33.7262 34.2219 35.3575C34.2219 36.9888 35.4906 38.3481 37.0312 38.3481C38.5719 38.3481 39.8406 36.9888 39.8406 35.3575C39.8406 33.7262 38.5719 32.3669 37.0312 32.3669ZM37.0312 33.8169C37.8288 33.8169 38.4813 34.5147 38.4813 35.3575C38.4813 36.2184 37.8288 36.8981 37.0312 36.8981C36.2337 36.8981 35.5812 36.2003 35.5812 35.3575C35.5812 34.4966 36.2337 33.8169 37.0312 33.8169Z" fill="white"/>
</g></symbol><symbol id="advanteges-healthy" viewBox="0 0 61 60"><g fill="none">
<rect x="0.5" width="60" height="60" fill="#68B738"/>
<g clip-path="url(#clip0_95_18)">
<path d="M43.3438 16.767C43.2434 16.317 42.8647 16 42.4325 16C42.4306 16 42.4288 16 42.4269 16C37.4891 16.033 25.4816 16.916 20.6337 24.38C18.1156 28.258 17.8991 33.293 19.9897 39.345C20.0056 39.392 20.0384 39.424 20.06 39.467C19.3128 41.44 19.0231 42.753 19.0156 42.79C18.9069 43.33 19.2303 43.862 19.7366 43.978C19.8022 43.993 19.8678 44 19.9334 44C20.3656 44 20.7547 43.679 20.8494 43.21C20.8691 43.108 23.2578 32.837 31.7028 26.832C32.1341 26.526 32.2503 25.905 31.9625 25.445C31.6747 24.985 31.0934 24.86 30.6622 25.168C25.8734 28.573 22.9241 33.176 21.1897 36.824C19.9484 32.246 20.2737 28.447 22.1759 25.519C25.9194 19.755 34.7984 18.365 40.1581 18.071C39.005 19.872 37.745 23.174 37.745 29C37.745 32.12 36.9153 34.522 35.2803 36.14C32.6591 38.731 28.4009 38.974 25.2866 38.724C24.7691 38.679 24.32 39.095 24.2806 39.646C24.2412 40.196 24.6284 40.676 25.1441 40.718C25.7675 40.769 26.4331 40.8 27.125 40.8C30.2956 40.8 33.9941 40.137 36.5544 37.606C38.5888 35.595 39.62 32.7 39.62 29.001C39.62 19.902 42.8356 17.905 42.8516 17.896C43.2416 17.687 43.4459 17.219 43.3438 16.767Z" fill="white"/>
</g>

</g></symbol><symbol id="advanteges-month" viewBox="0 0 61 60"><g fill="none">
<rect x="0.5" width="60" height="60" fill="#68B738"/>
<path d="M23.538 15C22.475 15 22.475 16.5831 23.538 16.5831H30.1815V18.1873C23.3786 18.62 18 24.4142 18 31.4854C18 35.4959 19.7432 39.1159 22.4963 41.5539C22.9746 41.976 23.0384 42.7254 22.6026 43.1897L21.0719 44.7412C20.3279 45.4272 21.4333 46.4931 22.103 45.7438L24.1014 43.7069C24.4521 43.3692 24.973 43.2847 25.4088 43.4958C27.1274 44.3397 29.0169 44.784 30.9341 44.795C32.8513 44.8059 34.7459 44.3833 36.4742 43.5591C36.8993 43.348 37.4308 43.4325 37.771 43.7702L39.7055 45.7438C40.3858 46.377 41.3638 45.4272 40.7472 44.7412L39.3016 43.2636C38.8552 42.8098 38.919 42.0605 39.4079 41.6277C40.8584 40.3585 42.0186 38.7959 42.8106 37.0447C43.6026 35.2936 44.0081 33.3944 43.9999 31.4748C43.9999 24.4036 38.5894 18.5989 31.7759 18.1873V16.5831H38.4194C39.4823 16.5831 39.4823 15 38.4194 15H23.538ZM19.435 31.4748C19.435 24.9419 24.6116 19.6543 30.9999 19.6543C37.3777 19.6543 42.5543 24.9419 42.5543 31.4748C42.5543 38.0183 37.3777 43.3164 30.9999 43.3164C24.6222 43.3164 19.435 38.0183 19.435 31.4748V31.4748ZM30.1921 23.3799C30.1921 22.2823 31.8503 22.2823 31.8503 23.3799V32.0131C31.8503 32.237 31.7607 32.4517 31.6012 32.6101C31.4418 32.7684 31.2255 32.8574 30.9999 32.8574C30.7875 32.8574 30.5836 32.7743 30.4324 32.6262C30.2812 32.478 30.1949 32.2767 30.1921 32.0658V23.3799V23.3799ZM25.2175 25.9973C25.5247 25.9973 25.8194 25.8761 26.0367 25.6603C26.254 25.4446 26.3761 25.152 26.3761 24.8469C26.3761 24.5418 26.254 24.2492 26.0367 24.0334C25.8194 23.8177 25.5247 23.6965 25.2175 23.6965C24.9307 23.7239 24.6645 23.8563 24.4707 24.0681C24.277 24.2798 24.1697 24.5556 24.1697 24.8416C24.1697 25.1277 24.277 25.4034 24.4707 25.6152C24.6645 25.8269 24.9307 25.9593 25.2175 25.9867V25.9973ZM36.7718 25.9973C37.0791 25.9973 37.3738 25.8761 37.5911 25.6603C37.8083 25.4446 37.9304 25.152 37.9304 24.8469C37.9304 24.5418 37.8083 24.2492 37.5911 24.0334C37.3738 23.8177 37.0791 23.6965 36.7718 23.6965C36.485 23.7239 36.2188 23.8563 36.0251 24.0681C35.8313 24.2798 35.724 24.5556 35.724 24.8416C35.724 25.1277 35.8313 25.4034 36.0251 25.6152C36.2188 25.8269 36.485 25.9593 36.7718 25.9867V25.9973ZM26.3761 38.5882C26.3761 40.1185 24.0588 40.1185 24.0588 38.5882C24.0588 37.0579 26.3761 37.0579 26.3761 38.5882ZM30.9999 42.0288C31.1607 42.0441 31.3229 42.0259 31.4762 41.9754C31.6294 41.9248 31.7703 41.843 31.8899 41.7352C32.0094 41.6273 32.1049 41.4959 32.1703 41.3493C32.2356 41.2026 32.2694 41.044 32.2694 40.8837C32.2694 40.7233 32.2356 40.5648 32.1703 40.4181C32.1049 40.2715 32.0094 40.14 31.8899 40.0322C31.7703 39.9244 31.6294 39.8426 31.4762 39.792C31.3229 39.7414 31.1607 39.7232 30.9999 39.7386C30.7132 39.7659 30.4469 39.8984 30.2532 40.1101C30.0595 40.3219 29.9522 40.5976 29.9522 40.8837C29.9522 41.1697 30.0595 41.4455 30.2532 41.6572C30.4469 41.869 30.7132 42.0014 30.9999 42.0288V42.0288ZM22.9109 31.6437C22.9263 31.8033 22.908 31.9643 22.857 32.1165C22.8061 32.2687 22.7237 32.4086 22.6151 32.5273C22.5065 32.646 22.3741 32.7408 22.2264 32.8057C22.0788 32.8706 21.919 32.9041 21.7575 32.9041C21.596 32.9041 21.4363 32.8706 21.2886 32.8057C21.141 32.7408 21.0086 32.646 20.9 32.5273C20.7914 32.4086 20.709 32.2687 20.658 32.1165C20.6071 31.9643 20.5888 31.8033 20.6042 31.6437C20.6318 31.3589 20.7652 31.0946 20.9785 30.9023C21.1917 30.7099 21.4695 30.6033 21.7575 30.6033C22.0456 30.6033 22.3234 30.7099 22.5366 30.9023C22.7499 31.0946 22.8833 31.3589 22.9109 31.6437V31.6437ZM40.237 32.794C40.3978 32.8094 40.56 32.7912 40.7132 32.7406C40.8665 32.6901 41.0074 32.6082 41.127 32.5004C41.2465 32.3926 41.342 32.2611 41.4074 32.1145C41.4727 31.9679 41.5065 31.8093 41.5065 31.6489C41.5065 31.4886 41.4727 31.33 41.4074 31.1834C41.342 31.0367 41.2465 30.9053 41.127 30.7975C41.0074 30.6896 40.8665 30.6078 40.7132 30.5573C40.56 30.5067 40.3978 30.4885 40.237 30.5038C39.9502 30.5312 39.684 30.6637 39.4903 30.8754C39.2966 31.0871 39.1892 31.3629 39.1892 31.6489C39.1892 31.935 39.2966 32.2108 39.4903 32.4225C39.684 32.6342 39.9502 32.7667 40.237 32.794V32.794ZM37.9304 38.5987C37.9304 40.1185 35.6132 40.1185 35.6132 38.5882C35.6132 37.0579 37.9304 37.0579 37.9304 38.5882V38.5987Z" fill="white"/>
</g></symbol><symbol id="arrow" viewBox="0 0 24 12"><g fill="none">
<line y1="6" x2="18" y2="6" stroke="black" stroke-width="2"/>
<path d="M24 6L17.25 11.1962L17.25 0.803848L24 6Z" fill="black"/>
</g></symbol><symbol id="catalog-plus" viewBox="0 0 30 30"><g fill="none">
<line x1="15" x2="15" y2="30" stroke="#D3D3D3" stroke-width="2"/>
<line x1="30" y1="15" y2="15" stroke="#D3D3D3" stroke-width="2"/>
</g></symbol><symbol id="footer-logo-text" viewBox="0 0 129 24"><g fill="none">
<g clip-path="url(#clip0_93023_523)">
<path d="M2.10253 22.0513C0.968358 20.3682 0.405343 18.3503 0.50003 16.3077V7.79487C0.362683 5.73031 0.890444 3.67661 2.00238 1.94872C3.1041 0.615385 4.80676 0 7.31067 0C9.81458 0 11.4171 0.615385 12.4187 1.74359C13.506 3.17255 14.0409 4.96181 13.921 6.76923V8.82051H9.01333V6.46154C9.05297 5.76385 8.95065 5.06533 8.71286 4.41026C8.58576 4.14583 8.38431 3.9264 8.13443 3.78018C7.88455 3.63395 7.59766 3.56763 7.31067 3.58974C6.60958 3.58974 6.10879 3.79487 5.90848 4.30769C5.68191 5.03643 5.58025 5.79984 5.60801 6.5641V17.5385C5.55512 18.2799 5.69327 19.0227 6.00864 19.6923C6.20895 20.2051 6.70973 20.4103 7.41083 20.4103C8.11192 20.4103 8.51255 20.2051 8.71286 19.6923C8.94058 18.9992 9.04242 18.2692 9.01333 17.5385V15.0769H13.921V17.1282C14.0229 18.9651 13.4911 20.7803 12.4187 22.2564C11.4171 23.4872 9.71443 24.1026 7.31067 24.1026C4.90692 24 3.1041 23.3846 2.10253 22.0513Z" fill="#111111"/>
<path d="M19.8302 0.307617H25.5391L29.7457 23.6922H25.1385L24.3372 18.7692H21.0321L20.2308 23.6922H15.5235L19.8302 0.307617ZM23.9366 15.6922L22.7347 6.56403L21.5329 15.6922H23.9366Z" fill="#111111"/>
<path d="M33.2512 4.20505H29.8458V0.307617H41.7645V4.10249H38.3591V23.6922H33.2512V4.20505Z" fill="#111111"/>
<path d="M50.8787 0.307617H59.6925V2.76916H53.9836V10.4615H58.5908V12.8204H53.9836V21.4358H59.6925V23.7948H50.7786V0.307617H50.8787Z" fill="#111111"/>
<path d="M62.2966 0.307617H64.5L71.0102 15.7948V0.307617H73.6142V23.6922H71.6111L65.0008 7.69223V23.6922H62.2966V0.307617Z" fill="#111111"/>
<path d="M76.6189 0.307617H85.4327V2.76916H79.7238V10.4615H84.331V12.8204H79.7238V21.4358H85.4327V23.7948H76.6189V0.307617Z" fill="#111111"/>
<path d="M88.0368 0.3076H92.644C94.4564 0.179397 96.2575 0.685711 97.7519 1.7435C98.8537 2.66657 99.3544 4.3076 99.3544 6.46145C99.3544 9.4358 98.453 11.282 96.5501 11.8973L99.7551 23.5897H96.6502L93.6455 12.6153H91.1416V23.5897H87.9366V0.3076H88.0368ZM92.4437 10.3589C93.4762 10.446 94.5053 10.1553 95.3482 9.53837C95.9491 9.02555 96.2496 7.99991 96.2496 6.46145C96.2774 5.69719 96.1757 4.93378 95.9491 4.20504C95.7237 3.68211 95.3366 3.24964 94.8474 2.97427C94.1576 2.65236 93.4003 2.51137 92.644 2.56401H91.2418V10.2563H92.4437V10.3589Z" fill="#111111"/>
<path d="M103.361 21.9487C102.32 20.1554 101.831 18.0821 101.959 15.9999V8.20507C101.934 6.71875 102.102 5.23567 102.459 3.79481C102.794 2.71811 103.462 1.78218 104.362 1.12815C105.481 0.450275 106.771 0.128917 108.068 0.20507C110.171 0.20507 111.674 0.71789 112.575 1.8461C113.612 3.33582 114.108 5.14977 113.977 6.9743V7.79481H110.973V7.07687C110.977 6.21789 110.91 5.36008 110.772 4.51276C110.688 3.97732 110.4 3.49792 109.971 3.17943C109.408 2.80104 108.74 2.62099 108.068 2.66661C107.35 2.61949 106.639 2.83785 106.065 3.28199C105.829 3.48529 105.637 3.73569 105.499 4.01787C105.361 4.30004 105.281 4.60805 105.264 4.92302C105.132 5.83993 105.065 6.76543 105.063 7.69225V16.4102C104.99 17.7384 105.194 19.0674 105.664 20.3076C106.065 21.1281 106.866 21.4358 108.068 21.4358C108.543 21.4964 109.024 21.4119 109.452 21.1929C109.88 20.9739 110.234 20.6302 110.472 20.2051C111.001 18.9081 111.241 17.5064 111.173 16.1025V14.4615H108.268V12.1025H114.077V23.6923H112.074L111.774 21.0256C111.511 21.9193 110.965 22.6975 110.22 23.2364C109.476 23.7753 108.578 24.0441 107.667 23.9999C106.84 24.0498 106.013 23.8885 105.261 23.5304C104.51 23.1724 103.857 22.6289 103.361 21.9487Z" fill="#111111"/>
<path d="M120.487 15.4871L115.58 0.410156H118.584L122.09 11.6922L125.495 0.410156H128.5L123.592 15.4871V23.6922H120.588V15.4871H120.487Z" fill="#111111"/>
</g>

</g></symbol><symbol id="icon_gift" viewBox="0 0 78 80"><g fill="none">
<path d="M64.0156 34.7127H14.031C12.2766 34.7127 10.8494 33.2951 10.8494 31.5524V22.0842C10.8494 20.3415 12.2766 18.9233 14.031 18.9233H64.0149C65.7687 18.9233 67.1953 20.3415 67.1953 22.0842V31.553C67.1959 33.2951 65.7693 34.7127 64.0156 34.7127ZM14.031 21.3455C13.6276 21.3455 13.2869 21.684 13.2869 22.0842V31.553C13.2869 31.9599 13.6208 32.2912 14.031 32.2912H64.0149C64.4244 32.2912 64.7578 31.9599 64.7578 31.553V22.0842C64.7578 21.6834 64.4171 21.3455 64.0149 21.3455H14.031Z" fill="white"/>
<path d="M57.0447 67.1488H20.999C17.6218 67.1488 14.8741 64.4191 14.8741 61.0626V33.5016C14.8741 32.8331 15.4201 32.2905 16.0929 32.2905C16.7656 32.2905 17.3116 32.8331 17.3116 33.5016V61.0626C17.3116 63.0833 18.9661 64.7267 20.999 64.7267H57.0447C59.077 64.7267 60.7308 63.0833 60.7308 61.0626V33.5016C60.7308 32.8331 61.2768 32.2905 61.9496 32.2905C62.6223 32.2905 63.1683 32.8331 63.1683 33.5016V61.0626C63.1683 64.4191 60.4213 67.1488 57.0447 67.1488Z" fill="white"/>
<path d="M39.0225 67.1488C38.3498 67.1488 37.8038 66.6069 37.8038 65.9378V33.5016C37.8038 32.8331 38.3498 32.2905 39.0225 32.2905C39.6953 32.2905 40.2413 32.8331 40.2413 33.5016V65.9372C40.2413 66.6069 39.6959 67.1488 39.0225 67.1488Z" fill="white"/>
<path d="M23.8113 21.3414C19.9966 19.2874 18.5731 14.5327 20.6383 10.7415C22.7022 6.95201 27.4864 5.53687 31.303 7.58721C37.117 10.7166 40.2565 19.4472 40.3869 19.8172L38.0877 20.6208C38.0585 20.5384 35.1256 12.3994 30.1433 9.71749C27.5078 8.30175 24.2062 9.27908 22.7821 11.8944C21.3567 14.5121 22.339 17.7941 24.9734 19.2117L23.8113 21.3414Z" fill="white"/>
<path d="M54.2313 21.3413L53.071 19.2111C54.3477 18.5238 55.2782 17.3848 55.6926 16.0035C56.1063 14.6217 55.9534 13.1624 55.2617 11.895C54.5719 10.6264 53.4263 9.70233 52.0363 9.29117C50.6457 8.88001 49.1783 9.0314 47.9023 9.71747C42.9201 12.3988 39.9871 20.5378 39.9579 20.6202L37.6587 19.8166C37.7891 19.4466 40.928 10.716 46.7421 7.58719C48.5897 6.5929 50.7182 6.3737 52.7316 6.96955C54.7468 7.56479 56.4061 8.90484 57.4061 10.7414C58.4073 12.5774 58.6285 14.6913 58.0289 16.6939C57.4287 18.6958 56.0801 20.3458 54.2313 21.3413Z" fill="white"/>
<path d="M61.9496 50.9314H16.0929C15.4201 50.9314 14.8741 50.3889 14.8741 49.7204C14.8741 49.0518 15.4201 48.5093 16.0929 48.5093H61.9496C62.6223 48.5093 63.1683 49.0518 63.1683 49.7204C63.1683 50.3889 62.6229 50.9314 61.9496 50.9314Z" fill="white"/>
</g></symbol><symbol id="logo-html-academy" viewBox="0 0 27 34">
<g clip-path="url(#clip0_93023_545)">
<path d="M13.6426 0.0157537L13.5 0L0 1.40733V26.0129L13.5 34L27 26.0129V1.40733L13.6426 0.0157537ZM25.2344 25.0151L13.5 31.9573L1.76561 25.0151V14.9293L13.4507 21.8451L13.4701 23.0984L5.45351 18.3548L5.44295 19.5801L13.4894 24.3885L13.5088 25.675L5.46408 20.9174L5.45351 22.1427L13.5 26.9511L21.6239 22.1182V20.8929V16.909L25.2432 14.7595L25.2344 25.0151ZM25.2344 13.4519L22.0147 15.3319L20.5325 16.2071L13.4666 12.0201L13.456 13.2454L19.4957 16.818L19.4429 16.8495L19.3126 16.9247L18.4536 17.4166L13.4666 14.4689L13.456 15.6942L17.3921 18.0222L16.4591 18.6314L16.438 18.6436L13.4666 16.902L13.456 18.1273L15.4029 19.2615L13.4155 20.4483L1.7973 13.5762L13.4349 6.61831L25.2344 13.4519ZM25.2344 12.2266L13.4401 5.31075L1.76561 12.2196V2.9897L13.5 1.76442L25.2344 2.9897V12.2266Z" fill="currentColor"/>
</g>

</symbol><symbol id="logo-text" viewBox="0 0 101 18"><g fill="none">
<g clip-path="url(#clip0_135_3354)">
<path d="M1.26449 16.5385C0.36955 15.2762 -0.0747041 13.7627 1.02073e-05 12.2308V5.84615C-0.108365 4.29774 0.308071 2.75746 1.18546 1.46154C2.05478 0.461538 3.39829 0 5.37403 0C7.34978 0 8.61425 0.461538 9.40455 1.30769C10.2626 2.37941 10.6846 3.72136 10.59 5.07692V6.61539H6.71754V4.84615C6.74881 4.32289 6.66808 3.799 6.48045 3.30769C6.38016 3.10938 6.2212 2.9448 6.02403 2.83513C5.82686 2.72547 5.60049 2.67572 5.37403 2.69231C4.82082 2.69231 4.42568 2.84615 4.26762 3.23077C4.08883 3.77733 4.00862 4.34988 4.03053 4.92308V13.1538C3.98879 13.71 4.0978 14.267 4.34665 14.7692C4.5047 15.1538 4.89985 15.3077 5.45306 15.3077C6.00627 15.3077 6.32239 15.1538 6.48045 14.7692C6.66013 14.2494 6.74049 13.7019 6.71754 13.1538V11.3077H10.59V12.8462C10.6704 14.2238 10.2508 15.5852 9.40455 16.6923C8.61425 17.6154 7.27075 18.0769 5.37403 18.0769C3.47732 18 2.05478 17.5385 1.26449 16.5385Z" fill="#111111"/>
<path d="M15.2527 0.23077H19.7574L23.0767 17.7692H19.4413L18.8091 14.0769H16.2011L15.5689 17.7692H11.8545L15.2527 0.23077ZM18.493 11.7692L17.5446 4.92308L16.5963 11.7692H18.493Z" fill="#111111"/>
<path d="M25.8427 3.15385H23.1557V0.23077H32.5602V3.07692H29.8732V17.7692H25.8427V3.15385Z" fill="#111111"/>
<path d="M39.752 0.23077H46.7066V2.07692H42.2019V7.84615H45.8372V9.61539H42.2019V16.0769H46.7066V17.8462H39.6729V0.23077H39.752Z" fill="#111111"/>
<path d="M48.7613 0.23077H50.5L55.6369 11.8462V0.23077H57.6917V17.7692H56.1111L50.8951 5.76923V17.7692H48.7613V0.23077Z" fill="#111111"/>
<path d="M60.0626 0.23077H67.0172V2.07692H62.5125V7.84615H66.1479V9.61539H62.5125V16.0769H67.0172V17.8462H60.0626V0.23077Z" fill="#111111"/>
<path d="M69.072 0.23077H72.7074C74.1375 0.134618 75.5587 0.514353 76.7379 1.30769C77.6072 2 78.0024 3.23077 78.0024 4.84616C78.0024 7.07692 77.2911 8.46154 75.7895 8.92308L78.3185 17.6923H75.8686L73.4977 9.46154H71.5219V17.6923H68.993V0.23077H69.072ZM72.5493 7.76923C73.364 7.83458 74.1761 7.61652 74.8412 7.15385C75.3154 6.76923 75.5524 6 75.5524 4.84616C75.5743 4.27296 75.4941 3.7004 75.3154 3.15385C75.1375 2.76166 74.832 2.4373 74.446 2.23077C73.9017 1.98934 73.3042 1.8836 72.7074 1.92308H71.601V7.69231H72.5493V7.76923Z" fill="#111111"/>
<path d="M81.1635 16.4615C80.342 15.1166 79.9564 13.5617 80.0571 12V6.15384C80.0376 5.03911 80.1705 3.9268 80.4522 2.84615C80.7167 2.03863 81.2437 1.33668 81.9538 0.846152C82.8362 0.337748 83.8542 0.0967294 84.8779 0.153844C86.5375 0.153844 87.723 0.53846 88.4343 1.38461C89.2524 2.50191 89.6438 3.86237 89.5407 5.23077V5.84615H87.1698V5.30769C87.1734 4.66346 87.1205 4.0201 87.0117 3.38461C86.9451 2.98303 86.7178 2.62348 86.3795 2.38461C85.9353 2.10082 85.4081 1.96579 84.8779 2C84.3113 1.96466 83.7504 2.12843 83.2973 2.46154C83.1114 2.61401 82.9595 2.80181 82.8508 3.01344C82.742 3.22507 82.6789 3.45608 82.6651 3.69231C82.5609 4.37999 82.5081 5.07411 82.507 5.76923V12.3077C82.4488 13.3038 82.6105 14.3006 82.9812 15.2308C83.2973 15.8462 83.9296 16.0769 84.8779 16.0769C85.2524 16.1223 85.6322 16.0589 85.9697 15.8947C86.3072 15.7304 86.5873 15.4727 86.7746 15.1538C87.1922 14.1811 87.3812 13.1299 87.3278 12.0769V10.8462H85.036V9.07692H89.6197V17.7692H88.0391L87.802 15.7692C87.5948 16.4395 87.1634 17.0231 86.5763 17.4273C85.9892 17.8315 85.2801 18.0331 84.5618 18C83.9088 18.0374 83.2565 17.9164 82.6633 17.6479C82.0702 17.3794 81.5549 16.9717 81.1635 16.4615Z" fill="#111111"/>
<path d="M94.6776 11.6154L90.8052 0.30769H93.1761L95.9421 8.76923L98.6291 0.30769H101L97.1275 11.6154V17.7692H94.7566V11.6154H94.6776Z" fill="#111111"/>
</g>

</g></symbol><symbol id="telegram" viewBox="0 0 29 22">
<path fill-rule="evenodd" clip-rule="evenodd" d="M23.9608 3.15291C24.1393 3.30222 24.2255 3.5349 24.1872 3.76448L21.5611 19.5214C21.5244 19.7411 21.3789 19.9273 21.1745 20.0159C20.97 20.1045 20.7346 20.0833 20.5493 19.9597L12.6708 14.7074C12.5177 14.6054 12.4145 14.4437 12.3862 14.2619C12.358 14.08 12.4074 13.8947 12.5223 13.751L15.133 10.4877L10.773 13.3944C10.577 13.525 10.326 13.5407 10.1152 13.4353L4.86293 10.8092C4.62769 10.6915 4.48535 10.4449 4.5012 10.1824C4.51705 9.91983 4.68804 9.6921 4.93573 9.60364L23.3188 3.03826C23.538 2.95998 23.7822 3.00359 23.9608 3.15291ZM6.82626 10.3228L10.3617 12.0905L17.9231 7.0495C18.1925 6.86994 18.5525 6.91349 18.7712 7.1521C18.99 7.3907 19.0022 7.75314 18.8 8.00591L13.995 14.0121L20.4328 18.3039L22.7083 4.65058L6.82626 10.3228Z" fill="currentColor"/>
</symbol><symbol id="vkontakte" viewBox="0 0 29 22">
<g clip-path="url(#clip0_93023_536)">
<path d="M1.5 5.33876C1.5 4.48373 2.0151 4.02268 3.04531 3.95562L7.01515 3.98077C7.28158 3.98077 7.45921 4.10651 7.54802 4.35799C7.95655 5.61538 8.41392 6.70094 8.92014 7.61465C9.42637 8.52835 10.088 9.58038 10.9051 10.7707C10.9761 10.9216 11.0916 10.997 11.2514 10.997C11.3758 10.997 11.4735 10.9384 11.5445 10.821L11.6244 10.5444L11.6511 6.19379C11.6511 5.89201 11.5756 5.69083 11.4246 5.59024C11.2736 5.48965 10.9939 5.4142 10.5853 5.36391C10.2656 5.31361 10.1058 5.12919 10.1058 4.81065C10.1058 4.74359 10.1146 4.69329 10.1324 4.65976C10.5054 3.57002 11.5711 3.02515 13.3296 3.02515L14.8216 3C15.4966 3 16.0561 3.15927 16.5001 3.47781C16.9442 3.79635 17.1662 4.29931 17.1662 4.98669V10.6953C17.2906 10.7791 17.406 10.821 17.5126 10.821C17.779 10.821 18.0099 10.6701 18.2053 10.3683C20.1592 7.78649 21.216 6.05966 21.3759 5.18787C21.3759 5.1711 21.3936 5.12919 21.4291 5.06213C21.5535 4.81065 21.7577 4.5927 22.0419 4.40828C22.3261 4.22387 22.5748 4.09813 22.788 4.03107C22.859 3.99753 22.9389 3.98077 23.0277 3.98077H27.1574L27.4239 4.00592C27.7791 4.00592 28.0544 4.16519 28.2498 4.48373C28.3209 4.58432 28.3697 4.69329 28.3964 4.81065C28.423 4.92801 28.4408 5.04536 28.4496 5.16272C28.4585 5.28008 28.463 5.34714 28.463 5.36391V5.53994C28.3386 6.22732 28.0233 6.9608 27.5171 7.74038C27.0109 8.51997 26.367 9.36243 25.5855 10.2678C24.804 11.1731 24.3155 11.7682 24.1201 12.0533C23.9603 12.2544 23.8803 12.4389 23.8803 12.6065C23.8803 12.7406 23.9514 12.8915 24.0935 13.0592L27.9834 17.6864C28.1965 17.9546 28.3031 18.248 28.3031 18.5666C28.3031 18.9522 28.1432 19.2707 27.8235 19.5222C27.5038 19.7737 27.1219 19.9162 26.6779 19.9497L26.2249 19.9749H22.1752C22.1574 19.9749 22.1219 19.979 22.0686 19.9874C22.0153 19.9958 21.9798 20 21.962 20C21.5712 20 21.2071 19.8407 20.8696 19.5222C20.7453 19.3881 19.9105 18.3989 18.3652 16.5547C18.2764 16.4374 18.152 16.3284 17.9922 16.2278C17.9211 16.4961 17.8279 16.8817 17.7124 17.3846C17.597 17.8876 17.5126 18.248 17.4593 18.466L17.3794 18.8935C17.2018 19.4803 16.8287 19.8323 16.2604 19.9497L15.8874 19.9749H13.2763C11.8021 19.9749 10.3322 19.3378 8.86686 18.0636C7.40148 16.7894 6.08264 15.1423 4.91034 13.122C3.73803 11.1018 2.64566 8.75049 1.63322 6.06805C1.54441 5.8501 1.5 5.607 1.5 5.33876ZM17.5126 11.8521C17.1396 11.8521 16.8021 11.7557 16.5001 11.5629C16.1982 11.3701 16.0472 11.106 16.0472 10.7707V4.98669C16.0472 4.65138 15.9584 4.41248 15.7808 4.26997C15.6032 4.12747 15.2923 4.05621 14.8483 4.05621L13.3296 4.10651C12.5658 4.10651 11.9886 4.23225 11.5978 4.48373C12.3793 4.8358 12.7701 5.40582 12.7701 6.19379V10.6198C12.7346 11.039 12.5569 11.3868 12.2372 11.6635C11.9175 11.9401 11.5623 12.0784 11.1715 12.0784C10.6386 12.0784 10.2301 11.8353 9.94591 11.3491C8.56046 9.37081 7.53025 7.4931 6.85529 5.71598L6.6155 5.06213L3.07195 5.03698C2.84104 5.03698 2.71227 5.04956 2.68562 5.0747C2.65898 5.09985 2.64566 5.1711 2.64566 5.28846C2.64566 5.43935 2.66342 5.59862 2.69895 5.76627L3.25845 7.17456C4.75048 10.8126 6.37127 13.6795 8.12085 15.7751C9.87042 17.8708 11.5889 18.9186 13.2763 18.9186H15.9406C16.0472 18.9186 16.1271 18.8893 16.1804 18.8306C16.2337 18.7719 16.2781 18.6588 16.3136 18.4911L16.3669 18.2396L16.8732 16.0266C17.0152 15.7249 17.1396 15.5237 17.2462 15.4231C17.4415 15.2387 17.6725 15.1465 17.9389 15.1465C18.3652 15.1465 18.8003 15.3895 19.2444 15.8757L21.5091 18.5917C21.6512 18.8097 21.8022 18.9186 21.962 18.9186H26.3581C26.891 18.9186 27.1574 18.7929 27.1574 18.5414C27.1574 18.4576 27.1308 18.3738 27.0775 18.2899L23.2142 13.7382C22.9123 13.3861 22.7613 13.0089 22.7613 12.6065C22.7613 12.2041 22.9034 11.8185 23.1876 11.4497C23.4185 11.1144 23.867 10.557 24.5331 9.77737C25.1992 8.99778 25.7809 8.26849 26.2782 7.5895C26.7756 6.9105 27.1042 6.29438 27.264 5.74112L27.3439 5.4142C27.3262 5.38067 27.3173 5.32618 27.3173 5.25074C27.3173 5.1753 27.3084 5.11243 27.2907 5.06213H23.1077C22.8412 5.16272 22.6281 5.31361 22.4682 5.51479L22.3084 5.9926C21.8643 7.14941 20.7009 8.93491 18.8181 11.3491C18.4451 11.6844 18.0099 11.8521 17.5126 11.8521Z" fill="currentColor"/>
</g>

</symbol><symbol id="youtube" viewBox="0 0 29 22">
<path d="M18.3509 10.7927L13.1145 7.30184C13.0159 7.23691 12.9016 7.19985 12.7837 7.19459C12.6657 7.18934 12.5486 7.21608 12.4446 7.27198C12.3406 7.32789 12.2537 7.41087 12.193 7.51215C12.1324 7.61343 12.1002 7.72924 12.1 7.84729V14.8291C12.1001 14.9481 12.1327 15.0648 12.1942 15.1667C12.2557 15.2686 12.3438 15.3518 12.4491 15.4073C12.5524 15.4631 12.6691 15.4895 12.7864 15.4837C12.9037 15.478 13.0172 15.4402 13.1145 15.3746L18.3509 11.8837C18.4409 11.8239 18.5148 11.7429 18.5658 11.6477C18.6169 11.5526 18.6436 11.4462 18.6436 11.3382C18.6436 11.2302 18.6169 11.1239 18.5658 11.0287C18.5148 10.9335 18.4409 10.8525 18.3509 10.7927ZM13.4091 13.6073V9.06911L16.8127 11.3382L13.4091 13.6073ZM25.8891 5.04366C25.7942 4.67547 25.6131 4.33511 25.3609 4.05061C25.1086 3.76611 24.7924 3.54561 24.4382 3.40729C20.7182 1.9782 14.7509 2.00002 14.5 2.00002C14.2491 2.00002 8.28182 1.9782 4.56182 3.40729C4.20764 3.54561 3.8914 3.76611 3.63914 4.05061C3.38689 4.33511 3.20584 4.67547 3.11091 5.04366C2.82727 6.11275 2.5 8.07638 2.5 11.3382C2.5 14.6 2.82727 16.5637 3.11091 17.6327C3.20584 18.0009 3.38689 18.3413 3.63914 18.6258C3.8914 18.9103 4.20764 19.1308 4.56182 19.2691C8.28182 20.6982 14.2491 20.6764 14.5 20.6764H14.5764C15.3291 20.6764 20.8927 20.6327 24.4382 19.2691C24.7924 19.1308 25.1086 18.9103 25.3609 18.6258C25.6131 18.3413 25.7942 18.0009 25.8891 17.6327C26.1727 16.5637 26.5 14.6 26.5 11.3382C26.5 8.07638 26.1727 6.11275 25.8891 5.04366ZM24.6236 17.3055C24.5807 17.472 24.499 17.6259 24.3853 17.7548C24.2715 17.8838 24.1289 17.984 23.9691 18.0473C20.4782 19.3891 14.5655 19.3673 14.5 19.3673C14.4345 19.3673 8.52182 19.3891 5.03091 18.0473C4.87107 17.984 4.72846 17.8838 4.61471 17.7548C4.50096 17.6259 4.41929 17.472 4.37636 17.3055C4.11455 16.3018 3.80909 14.4582 3.80909 11.3382C3.80909 8.2182 4.11455 6.37457 4.37636 5.37093C4.41929 5.20445 4.50096 5.05047 4.61471 4.92156C4.72846 4.79264 4.87107 4.69243 5.03091 4.62911C8.52182 3.28729 14.4345 3.30911 14.5 3.30911C14.5655 3.30911 20.4782 3.28729 23.9691 4.62911C24.1289 4.69243 24.2715 4.79264 24.3853 4.92156C24.499 5.05047 24.5807 5.20445 24.6236 5.37093C24.8855 6.37457 25.1909 8.2182 25.1909 11.3382C25.1909 14.4582 24.8855 16.3018 24.6236 17.3055Z" fill="currentColor"/>
</symbol></svg>